Coordinates
version=1
nRows=10
nColumns=63
inDegrees=yes

Units are S.I. units (second, meters, Newtons, ...)
If the header above contains a line with 'inDegrees', this indicates whether rotational values are in degrees (yes) or radians (no).

endheader
time	pelvis_tilt	pelvis_list	pelvis_rotation	pelvis_tx	pelvis_ty	pelvis_tz	hip_flexion_r	hip_adduction_r	hip_rotation_r	knee_angle_r	knee_angle_r_beta	ankle_angle_r	subtalar_angle_r	mtp_angle_r	hip_flexion_l	hip_adduction_l	hip_rotation_l	knee_angle_l	knee_angle_l_beta	ankle_angle_l	subtalar_angle_l	mtp_angle_l	L5_S1_Flex_Ext	L5_S1_Lat_Bending	L5_S1_axial_rotation	L4_L5_Flex_Ext	L4_L5_Lat_Bending	L4_L5_axial_rotation	L3_L4_Flex_Ext	L3_L4_Lat_Bending	L3_L4_axial_rotation	L2_L3_Flex_Ext	L2_L3_Lat_Bending	L2_L3_axial_rotation	L1_L2_Flex_Ext	L1_L2_Lat_Bending	L1_L2_axial_rotation	L1_T12_Flex_Ext	L1_T12_Lat_Bending	L1_T12_axial_rotation	Abs_r3	Abs_r2	Abs_r1	Abs_t1	Abs_t2	neck_flexion	neck_bending	neck_rotation	arm_flex_r	arm_add_r	arm_rot_r	elbow_flex_r	pro_sup_r	wrist_flex_r	wrist_dev_r	arm_flex_l	arm_add_l	arm_rot_l	elbow_flex_l	pro_sup_l	wrist_flex_l	wrist_dev_l
     11.24200000	    -51.19836190	     -8.32326999	     -1.00545126	     -0.36658002	      1.11852525	      0.04058468	    116.53068266	     -7.11338419	     -6.30862453	     99.12646671	      1.73008322	     18.48758579	     -1.04009091	      0.00000000	     88.69047143	     -8.53140951	      7.02418076	     70.21931880	      1.22555831	     10.85007910	     12.55046247	      0.00000000	     -0.08335033	      0.96937378	      0.57115819	     -0.15478990	      1.28926713	      0.60685558	     -0.13693626	      2.35693542	      0.60685558	     -0.09526109	      2.35693542	      0.49976342	     -0.07739912	      1.97674702	      0.46406603	     -0.04762638	      1.50155999	      0.42836865	     -0.59536308	     10.96575012	      3.17661053	      0.00000000	      0.00000000	     -0.00000000	      0.00000000	      0.00000000	     73.23814304	    -18.15557623	     26.12872512	     38.41770337	     29.96308666	      0.00000000	      5.00000014	     72.98403925	     -6.34937289	     15.63852590	     31.70603527	     53.34221418	      0.00000000	      5.00000014
     11.25000000	    -51.24790917	     -8.48370385	     -0.92655442	     -0.36682741	      1.11899743	      0.04060764	    115.75260149	     -7.16397067	     -6.67095987	     96.46288939	      1.68359503	     18.31155581	     -0.64528896	      0.00000000	     89.48965231	     -8.63169547	      7.14436644	     72.76057819	      1.26991166	     10.97090504	     12.87508897	      0.00000000	     -0.08434223	      0.98648045	      0.54966452	     -0.15663196	      1.31201900	      0.58401856	     -0.13856585	      2.39852856	      0.58401856	     -0.09639474	      2.39852856	      0.48095646	     -0.07832020	      2.01163093	      0.44660243	     -0.04819315	      1.52805821	      0.41224839	     -0.60244813	     11.15926413	      3.05706918	      0.00000000	      0.00000000	     -0.00000000	      0.00000000	      0.00000000	     73.23131313	    -18.14703159	     25.93592552	     38.31796371	     29.99657084	      0.00000000	      5.00000014	     73.10405340	     -6.34580376	     15.73136770	     31.56698741	     53.33127942	      0.00000000	      5.00000014
     11.25800000	    -51.27214328	     -8.60412611	     -0.61983096	     -0.36704377	      1.11928951	      0.04033118	    114.82416250	     -7.40157825	     -6.87640236	     93.75940718	      1.63641036	     18.04428507	     -0.08069907	      0.00000000	     90.29689279	     -8.48129753	      7.26394911	     75.26952654	      1.31370106	     11.28973617	     13.04475232	      0.00000000	     -0.08408340	      0.99730643	      0.47810404	     -0.15615128	      1.32641755	      0.50798555	     -0.13814062	      2.42485085	      0.50798555	     -0.09609892	      2.42485085	      0.41834104	     -0.07807985	      2.03370727	      0.38845953	     -0.04804525	      1.54482766	      0.35857803	     -0.60059932	     11.28172977	      2.65907125	      0.00000000	      0.00000000	     -0.00000000	      0.00000000	      0.00000000	     73.23955700	    -18.10603215	     25.89777102	     38.23760405	     30.02309004	      0.00000000	      5.00000014	     73.21677648	     -6.41466071	     15.86281827	     31.50515998	     53.34144642	      0.00000000	      5.00000014
     11.26700000	    -51.27719180	     -8.66842229	     -0.21721233	     -0.36723898	      1.11947461	      0.03983725	    113.77145878	     -7.69773549	     -6.98788825	     90.98919308	      1.58806100	     17.64565264	      0.53871743	      0.00000000	     91.15254037	     -8.21539300	      7.30553676	     77.84817260	      1.35870693	     11.55185351	     13.12095112	      0.00000000	     -0.08338307	      1.00243454	      0.39130474	     -0.15485069	      1.33323793	      0.41576129	     -0.13699004	      2.43731933	      0.41576129	     -0.09529851	      2.43731933	      0.34239165	     -0.07742952	      2.04416451	      0.31793510	     -0.04764508	      1.55277110	      0.29347855	     -0.59559691	     11.33973996	      2.17631957	      0.00000000	      0.00000000	     -0.00000000	      0.00000000	      0.00000000	     73.29845119	    -18.05354109	     25.91677220	     38.04665172	     29.98620370	      0.00000000	      5.00000014	     73.28258661	     -6.52567254	     16.01733265	     31.47451075	     53.39113407	      0.00000000	      5.00000014
     11.27500000	    -51.28553976	     -8.75042027	      0.22031634	     -0.36745330	      1.11957592	      0.03935056	    112.57981465	     -7.99606813	     -7.09624575	     88.13113208	      1.53817843	     17.14329428	      1.21793232	      0.00000000	     92.10981624	     -7.90414233	      7.38315733	     80.49961830	      1.40498339	     11.74809359	     13.06369404	      0.00000000	     -0.08189028	      1.00735201	      0.29494600	     -0.15207844	      1.33977818	      0.31338013	     -0.13453755	      2.44927569	      0.31338013	     -0.09359240	      2.44927569	      0.25807775	     -0.07604332	      2.05419223	      0.23964363	     -0.04679211	      1.56038827	      0.22120950	     -0.58493410	     11.39536746	      1.64040118	      0.00000000	      0.00000000	     -0.00000000	      0.00000000	      0.00000000	     73.38374597	    -17.96442049	     25.95825783	     37.79513537	     29.95637667	      0.00000000	      5.00000014	     73.36248567	     -6.65384643	     16.19110760	     31.47024928	     53.44152758	      0.00000000	      5.00000014
     11.28300000	    -51.28539379	     -8.88953800	      0.60799515	     -0.36765320	      1.11968389	      0.03881033	    111.19762658	     -8.29147543	     -7.35606247	     85.14505210	      1.48606150	     16.60250164	      2.04819154	      0.00000000	     93.15434899	     -7.58259680	      7.59958990	     83.21676847	      1.45240660	     11.90113103	     12.93886304	      0.00000000	     -0.08184366	      1.02096031	      0.21315619	     -0.15199187	      1.35787722	      0.22647845	     -0.13446095	      2.48236291	      0.22647845	     -0.09353912	      2.48236291	      0.18651166	     -0.07600002	      2.08194227	      0.17318940	     -0.04676547	      1.58146753	      0.15986714	     -0.58460110	     11.54930726	      1.18551077	      0.00000000	      0.00000000	     -0.00000000	      0.00000000	      0.00000000	     73.54897376	    -17.86544364	     26.05137444	     37.45670553	     29.92838516	      0.00000000	      5.00000014	     73.41381280	     -6.78156990	     16.43588756	     31.52435753	     53.50606446	      0.00000000	      5.00000014
     11.29200000	    -51.29082764	     -9.01967824	      0.99974460	     -0.36787418	      1.11971041	      0.03830815	    109.72088549	     -8.55023068	     -7.59936810	     82.10956811	      1.43308231	     15.96869596	      2.87354271	      0.00000000	     94.29504457	     -7.21923551	      7.87791351	     85.99481103	      1.50089259	     12.08989788	     12.84536435	      0.00000000	     -0.08110810	      1.03166663	      0.12980604	     -0.15062585	      1.37211661	      0.13791891	     -0.13325250	      2.50839423	      0.13791891	     -0.09269845	      2.50839423	      0.11358028	     -0.07531698	      2.10377458	      0.10546740	     -0.04634517	      1.59805160	      0.09735453	     -0.57934704	     11.67041920	      0.72194223	      0.00000000	      0.00000000	     -0.00000000	      0.00000000	      0.00000000	     73.73127112	    -17.74943364	     26.16228461	     37.08129556	     29.90498559	      0.00000000	      5.00000014	     73.48283950	     -6.92303208	     16.68190654	     31.62316420	     53.56915886	      0.00000000	      5.00000014
     11.30000000	    -51.27277135	     -9.25549704	      1.40206759	     -0.36798518	      1.11969198	      0.03762208	    108.06556024	     -8.87927188	     -8.03150191	     79.03344174	      1.37939378	     15.52920125	      4.02438109	      0.00000000	     95.51150444	     -6.74526881	      8.38622060	     88.81957794	      1.55019408	     12.38084619	     12.82079107	      0.00000000	     -0.08096491	      1.05730810	      0.05053648	     -0.15035993	      1.40621977	      0.05369501	     -0.13301724	      2.57073891	      0.05369501	     -0.09253479	      2.57073891	      0.04421942	     -0.07518401	      2.15606268	      0.04106089	     -0.04626335	      1.63777025	      0.03790236	     -0.57832423	     11.96048068	      0.28106873	      0.00000000	      0.00000000	     -0.00000000	      0.00000000	      0.00000000	     74.03521297	    -17.77381879	     26.79532820	     36.73243172	     29.90143217	      0.00000000	      5.00000014	     73.49418511	     -7.07010284	     17.10053605	     31.77417334	     53.69073820	      0.00000000	      5.00000014
     11.30800000	    -51.27295534	     -9.29303335	      1.63512786	     -0.36807590	      1.11963721	      0.03738935	    106.42973310	     -8.92562486	     -8.34435656	     75.94526294	      1.32549489	     14.58950507	      4.65492656	      0.00000000	     96.79167492	     -6.42168503	      8.74648660	     91.65708678	      1.59971795	     12.65479004	     12.92503961	      0.00000000	     -0.07985750	      1.05588946	      0.00086522	     -0.14830336	      1.40433299	      0.00091929	     -0.13119789	      2.56728964	      0.00091929	     -0.09126914	      2.56728964	      0.00075706	     -0.07415567	      2.15316980	      0.00070299	     -0.04563058	      1.63557278	      0.00064891	     -0.57041413	     11.94443280	      0.00481207	      0.00000000	      0.00000000	     -0.00000000	      0.00000000	      0.00000000	     74.23292813	    -17.54720419	     26.72978271	     36.19683593	     29.85379030	      0.00000000	      5.00000014	     73.50617724	     -7.19439324	     17.28284085	     31.90197953	     53.73977425	      0.00000000	      5.00000014
     11.31700000	    -51.26548856	     -9.48851808	      1.80601811	     -0.36800943	      1.11962159	      0.03702309	    104.63573692	     -8.96465568	     -8.90638935	     72.81142697	      1.27079913	     13.74973626	      5.37771878	      0.00000000	     98.14927638	     -6.06649680	      9.35548994	     94.47265953	      1.64885896	     13.07929984	     13.11630230	      0.00000000	     -0.07968124	      1.07539585	     -0.03758332	     -0.14797603	      1.43027649	     -0.03993228	     -0.13090831	      2.61471748	     -0.03993228	     -0.09106769	      2.61471748	     -0.03288540	     -0.07399200	      2.19294723	     -0.03053645	     -0.04552986	      1.66578818	     -0.02818749	     -0.56915514	     12.16509298	     -0.20902715	      0.00000000	      0.00000000	     -0.00000000	      0.00000000	      0.00000000	     74.44880894	    -17.39849292	     26.77668746	     35.78333066	     29.86382680	      0.00000000	      5.00000014	     73.45989767	     -7.31546150	     17.52141722	     32.07104800	     53.77683463	      0.00000000	      5.00000014
